{"title":"Under The Bed 2012 BRRIP Xvid AC3-BHRG","uid":8374979,"size":1533489543,"categoryP":"video","categoryS":"movies","magnet":"?xt=urn:btih:f4fda2d97f81c8b88502b638ea467128e4a918de&amp;dn=Under+The+Bed+2012+BRRIP+Xvid+AC3-BHRG&amp;tr=udp%3A%2F%2Ftracker.openbittorrent.com%3A80&amp;tr=udp%3A%2F%2Fopen.demonii.com%3A1337&amp;tr=udp%3A%2F%2Ftracker.coppersurfer.tk%3A6969&amp;tr=udp%3A%2F%2Fexodus.desync.com%3A6969","seeders":1,"leechers":0,"uploader":"Gh0stNet","files":3,"time":1365984943,"description":"File size: 1.41 GiB\nDuration: 1h 26mn\nOverall bit rate: 2 322 Kbps\n\nVideo\nID: 0\nFormat: MPEG-4 Visual\nFormat profile: Advanced Simple@L5\nFormat settings, BVOP: 2\nFormat settings, QPel: No\nFormat settings, GMC: No warppoints\nFormat settings, Matrix: Default (H.263)\nCodec ID: XVID\nCodec ID/Hint: XviD\nDuration: 1h 26mn\nBit rate: 1 866 Kbps\nWidth: 704 pixels\nHeight: 288 pixels\nDisplay aspect ratio: 2.40:1\nFrame rate: 23.976 fps\nColor space: YUV\nChroma subsampling: 4:2:0\nBit depth: 8 bits\nScan type: Progressive\nCompression mode: Lossy\nBits/(Pixel*Frame): 0.384\nStream size: 1.13 GiB (80%)\nWriting library: XviD 1.2.1 (UTC 2008-12-04)\n\nAudio\nID: 1\nFormat: AC-3\nFormat/Info: Audio Coding 3\nMode extension: CM (complete main)\nFormat settings, Endianness: Big\nCodec ID: 2000\nDuration: 1h 26mn\nBit rate mode: Constant\nBit rate: 448 Kbps\nChannel(s): 6 channels\nChannel positions: Front: L C R, Side: L R, LFE\nSampling rate: 48.0 KHz\nBit depth: 16 bits\nCompression mode: Lossy\nStream size: 279 MiB (19%)\nAlignment: Aligned on interleaves\nInterleave, duration: 64 ms (1.53 video frames)\nInterleave, preload duration: 192 ms\nTitle: Under.The.Bed.2012.720p.BRRiP.XViD.AC3-LEGi0N.avi_track_1_\n\nIMDB[url][/url]\n\nsource &gt;&gt;&gt;&gt;&gt;&gt;LEGi0N..... thanks guys\n\nsample provided\n\nScreens:\n &lt;a href=&quot;\nhttp://i.imgur.com/KHxJb1I.png&quot; rel=&quot;nofollow&quot; target=&quot;_NEW&quot;&gt;\nhttp://i.imgur.com/KHxJb1I.png&lt;/a&gt; &lt;a href=&quot;\nhttp://i.imgur.com/0RlYi6L.png&quot; rel=&quot;nofollow&quot; target=&quot;_NEW&quot;&gt;\nhttp://i.imgur.com/0RlYi6L.png&lt;/a&gt; &lt;a href=&quot;\nhttp://i.imgur.com/R7JlXtL.png&quot; rel=&quot;nofollow&quot; target=&quot;_NEW&quot;&gt;\nhttp://i.imgur.com/R7JlXtL.png&lt;/a&gt; &lt;a href=&quot;\nhttp://i.imgur.com/huKDSxJ.png&quot; rel=&quot;nofollow&quot; target=&quot;_NEW&quot;&gt;\nhttp://i.imgur.com/huKDSxJ.png&lt;/a&gt;","torrent":{"xt":"urn:btih:f4fda2d97f81c8b88502b638ea467128e4a918de","amp;dn":"Under+The+Bed+2012+BRRIP+Xvid+AC3-BHRG","amp;tr":["udp%3A%2F%2Ftracker.openbittorrent.com%3A80","udp%3A%2F%2Fopen.demonii.com%3A1337","udp%3A%2F%2Ftracker.coppersurfer.tk%3A6969","udp%3A%2F%2Fexodus.desync.com%3A6969"],"infoHash":"f4fda2d97f81c8b88502b638ea467128e4a918de","infoHashBuffer":{"type":"Buffer","data":[244,253,162,217,127,129,200,184,133,2,182,56,234,70,113,40,228,169,24,222]},"announce":[],"urlList":[]}}